<?xml version="1.0" standalone="no"?>
<!DOCTYPE svg PUBLIC "-//W3C//DTD SVG 20010904//EN"
 "http://www.w3.org/TR/2001/REC-SVG-20010904/DTD/svg10.dtd">
<svg version="1.0" xmlns="http://www.w3.org/2000/svg"
 width="144.000000pt" height="144.000000pt" viewBox="0 0 144.000000 144.000000"
 preserveAspectRatio="xMidYMid meet">
<metadata>
Created by potrace 1.14, written by Peter Selinger 2001-2017
</metadata>
<g transform="translate(0.000000,144.000000) scale(0.100000,-0.100000)"
fill="#000000" stroke="none">
<path d="M705 1373 c1 -83 -1 -90 -28 -97 -12 -3 -34 -16 -48 -28 -91 -80 -73
-237 32 -282 l26 -11 -77 -178 c-42 -97 -80 -180 -84 -184 -3 -4 -38 -6 -77
-6 -60 1 -70 -1 -67 -15 3 -14 16 -17 66 -17 38 0 61 -4 58 -10 -2 -5 -33 -75
-69 -155 -62 -142 -68 -167 -41 -183 20 -11 17 -34 -12 -115 -53 -148 -16 -82
95 166 63 142 119 266 126 277 9 15 22 20 56 19 40 0 44 -2 47 -27 3 -21 9
-27 27 -27 18 0 24 6 27 27 3 26 6 27 47 26 24 -1 47 -5 51 -10 5 -4 44 -89
88 -188 44 -99 96 -215 116 -258 20 -43 36 -83 36 -89 0 -6 3 -8 7 -5 4 4 -6
47 -22 96 l-28 89 22 23 c25 27 27 21 -54 200 l-63 139 31 1 c86 3 92 4 95 20
3 14 -6 17 -50 17 -29 0 -63 0 -74 1 -18 1 -31 23 -74 124 -29 67 -63 145 -76
174 -13 28 -24 55 -24 60 0 5 15 17 34 27 39 21 76 80 81 133 6 71 -47 153
-111 169 -27 7 -26 4 -25 97 l1 67 -33 0 -32 0 0 -67z m68 -157 c48 -20 70
-50 70 -95 0 -67 -43 -111 -108 -111 -118 0 -145 176 -32 209 18 5 33 10 35
10 1 1 17 -5 35 -13z m17 -506 c30 -66 46 -116 41 -120 -6 -3 -23 -5 -38 -4
-23 0 -29 6 -33 30 -5 26 -11 30 -39 26 -5 -1 -11 -14 -13 -29 -2 -21 -8 -27
-31 -28 -15 0 -32 2 -37 5 -4 3 11 50 34 105 23 55 46 109 49 119 4 10 9 17
12 15 2 -3 27 -56 55 -119z"/>
</g>
</svg>
